<svg width="50" height="32" viewBox="0 0 50 32" fill="none" xmlns="http://www.w3.org/2000/svg">
  <path fill-rule="evenodd" clip-rule="evenodd"
    d="M0 0.993377C0 0.44475 0.444751 0 0.993378 0H9.27152C9.82015 0 10.2649 0.444751 10.2649 0.993378V9.49324C10.2649 10.4506 11.4858 10.8539 12.0561 10.085L19.2386 0.401586C19.4259 0.14896 19.7219 0 20.0364 0H29.1391C29.6877 0 30.1325 0.444751 30.1325 0.993378V9.49324C30.1325 10.4506 31.3534 10.8539 31.9237 10.085L39.1061 0.401586C39.2935 0.14896 39.5894 0 39.904 0H49.0066C49.5552 0 50 0.444751 50 0.993378V31.0066C50 31.5553 49.5553 32 49.0066 32H40.3974C39.8487 32 39.404 31.5553 39.404 31.0066V23.3149C39.404 22.3777 38.2254 21.9618 37.6372 22.6914L30.4307 31.6301C30.2421 31.864 29.9578 32 29.6573 32H20.5298C19.9812 32 19.5364 31.5553 19.5364 31.0066V23.3149C19.5364 22.3777 18.3579 21.9618 17.7697 22.6914L10.5631 31.6301C10.3745 31.864 10.0902 32 9.78977 32H0.993377C0.44475 32 0 31.5553 0 31.0066V0.993377Z"
    fill="black" />
</svg>