<svg width="46" height="46" viewBox="0 0 46 46" fill="none" xmlns="http://www.w3.org/2000/svg">
  <rect x="0.75" y="0.75" width="44.5" height="44.5" rx="22.25" stroke="currentColor" stroke-width="1.5" />
  <path fill-rule="evenodd" clip-rule="evenodd"
    d="M23.0129 8C14.5708 8 7.74609 14.875 7.74609 23.3802C7.74609 30.179 12.1189 35.9339 18.1851 37.9708C18.9435 38.1239 19.2214 37.6399 19.2214 37.2327C19.2214 36.8761 19.1964 35.6539 19.1964 34.3805C14.9495 35.2974 14.0651 32.5471 14.0651 32.5471C13.3826 30.7646 12.3714 30.3065 12.3714 30.3065C10.9814 29.3643 12.4726 29.3643 12.4726 29.3643C14.0145 29.4662 14.8236 30.943 14.8236 30.943C16.1882 33.2855 18.3873 32.6236 19.272 32.2161C19.3982 31.223 19.8029 30.5355 20.2326 30.1537C16.8454 29.7971 13.2817 28.473 13.2817 22.5653C13.2817 20.8846 13.8879 19.5096 14.8486 18.4403C14.697 18.0584 14.1661 16.4793 15.0004 14.3659C15.0004 14.3659 16.2895 13.9584 19.196 15.9447C20.4404 15.608 21.7238 15.4367 23.0129 15.4353C24.302 15.4353 25.616 15.6137 26.8295 15.9447C29.7363 13.9584 31.0254 14.3659 31.0254 14.3659C31.8597 16.4793 31.3285 18.0584 31.1769 18.4403C32.1629 19.5096 32.7441 20.8846 32.7441 22.5653C32.7441 28.473 29.1804 29.7715 25.7679 30.1537C26.3241 30.6374 26.8041 31.554 26.8041 33.0055C26.8041 35.068 26.7791 36.7233 26.7791 37.2324C26.7791 37.6399 27.0573 38.1239 27.8154 37.9711C33.8816 35.9336 38.2544 30.179 38.2544 23.3802C38.2794 14.875 31.4297 8 23.0129 8Z"
    fill="currentColor" />
</svg>