<svg width="46" height="46" viewBox="0 0 46 46" fill="none" xmlns="http://www.w3.org/2000/svg">
  <rect x="0.75" y="0.75" width="44.5" height="44.5" rx="22.25" stroke="currentColor" stroke-width="1.5" />
  <g clip-path="url(#clip0_72_703)">
    <path
      d="M23 13.1609C26.2063 13.1609 26.5859 13.175 27.8469 13.2312C29.0188 13.2828 29.6516 13.4797 30.0734 13.6438C30.6313 13.8594 31.0344 14.1219 31.4516 14.5391C31.8734 14.9609 32.1313 15.3594 32.3469 15.9172C32.5109 16.3391 32.7078 16.9766 32.7594 18.1437C32.8156 19.4094 32.8297 19.7891 32.8297 22.9906C32.8297 26.1969 32.8156 26.5766 32.7594 27.8375C32.7078 29.0094 32.5109 29.6422 32.3469 30.0641C32.1313 30.6219 31.8688 31.025 31.4516 31.4422C31.0297 31.8641 30.6313 32.1219 30.0734 32.3375C29.6516 32.5016 29.0141 32.6984 27.8469 32.75C26.5813 32.8063 26.2016 32.8203 23 32.8203C19.7938 32.8203 19.4141 32.8063 18.1531 32.75C16.9813 32.6984 16.3484 32.5016 15.9266 32.3375C15.3688 32.1219 14.9656 31.8594 14.5484 31.4422C14.1266 31.0203 13.8688 30.6219 13.6531 30.0641C13.4891 29.6422 13.2922 29.0047 13.2406 27.8375C13.1844 26.5719 13.1703 26.1922 13.1703 22.9906C13.1703 19.7844 13.1844 19.4047 13.2406 18.1437C13.2922 16.9719 13.4891 16.3391 13.6531 15.9172C13.8688 15.3594 14.1313 14.9562 14.5484 14.5391C14.9703 14.1172 15.3688 13.8594 15.9266 13.6438C16.3484 13.4797 16.9859 13.2828 18.1531 13.2312C19.4141 13.175 19.7938 13.1609 23 13.1609ZM23 11C19.7422 11 19.3344 11.0141 18.0547 11.0703C16.7797 11.1266 15.9031 11.3328 15.1438 11.6281C14.3516 11.9375 13.6813 12.3453 13.0156 13.0156C12.3453 13.6812 11.9375 14.3516 11.6281 15.1391C11.3328 15.9031 11.1266 16.775 11.0703 18.05C11.0141 19.3344 11 19.7422 11 23C11 26.2578 11.0141 26.6656 11.0703 27.9453C11.1266 29.2203 11.3328 30.0969 11.6281 30.8563C11.9375 31.6484 12.3453 32.3188 13.0156 32.9844C13.6813 33.65 14.3516 34.0625 15.1391 34.3672C15.9031 34.6625 16.775 34.8687 18.05 34.925C19.3297 34.9812 19.7375 34.9953 22.9953 34.9953C26.2531 34.9953 26.6609 34.9812 27.9406 34.925C29.2156 34.8687 30.0922 34.6625 30.8516 34.3672C31.6391 34.0625 32.3094 33.65 32.975 32.9844C33.6406 32.3188 34.0531 31.6484 34.3578 30.8609C34.6531 30.0969 34.8594 29.225 34.9156 27.95C34.9719 26.6703 34.9859 26.2625 34.9859 23.0047C34.9859 19.7469 34.9719 19.3391 34.9156 18.0594C34.8594 16.7844 34.6531 15.9078 34.3578 15.1484C34.0625 14.3516 33.6547 13.6812 32.9844 13.0156C32.3188 12.35 31.6484 11.9375 30.8609 11.6328C30.0969 11.3375 29.225 11.1313 27.95 11.075C26.6656 11.0141 26.2578 11 23 11Z"
      fill="currentColor" />
    <path
      d="M23 16.8359C19.5969 16.8359 16.8359 19.5969 16.8359 23C16.8359 26.4031 19.5969 29.1641 23 29.1641C26.4031 29.1641 29.1641 26.4031 29.1641 23C29.1641 19.5969 26.4031 16.8359 23 16.8359ZM23 26.9984C20.7922 26.9984 19.0016 25.2078 19.0016 23C19.0016 20.7922 20.7922 19.0016 23 19.0016C25.2078 19.0016 26.9984 20.7922 26.9984 23C26.9984 25.2078 25.2078 26.9984 23 26.9984Z"
      fill="currentColor" />
    <path
      d="M30.8469 16.5921C30.8469 17.389 30.2 18.0312 29.4078 18.0312C28.6109 18.0312 27.9688 17.3843 27.9688 16.5921C27.9688 15.7953 28.6156 15.1531 29.4078 15.1531C30.2 15.1531 30.8469 15.8 30.8469 16.5921Z"
      fill="currentColor" />
  </g>
</svg>