<svg width="46" height="46" viewBox="0 0 46 46" fill="none" xmlns="http://www.w3.org/2000/svg">
  <rect x="0.75" y="0.75" width="44.5" height="44.5" rx="22.25" stroke="currentColor" stroke-width="1.5" />
  <path fill-rule="evenodd" clip-rule="evenodd"
    d="M12.9722 19.5162V33.3502H17.2741V19.5162H12.9722ZM12.627 15.1407C12.627 16.5162 13.742 17.6313 15.1232 17.6313C16.4987 17.6313 17.6138 16.5105 17.6138 15.1407C17.6138 13.7652 16.4987 12.6501 15.1232 12.6501C13.742 12.6501 12.627 13.7652 12.627 15.1407ZM29.076 33.3502H33.3723V25.7596C33.3723 22.0351 32.5685 19.1709 28.2157 19.1709C26.127 19.1709 24.7232 20.32 24.1515 21.4068H24.0949V19.5162H19.9741V33.3502H24.2647V26.5124C24.2647 24.7068 24.6043 22.9577 26.8402 22.9577C29.0477 22.9577 29.076 25.0238 29.076 26.6256V33.3502Z"
    fill="currentColor" />
</svg>